<svg id="Capa_1" data-name="Capa 1" xmlns="http://www.w3.org/2000/svg" viewBox="0 0 1200 200"><defs><style>.cls-1{fill:#1d1d1b;}.cls-2{fill:#92358b;}</style></defs><title>grafic</title><path class="cls-1" d="M48.57,37.56A29.55,29.55,0,0,0,31.51,68.29c1.43,11.71,6.3,29.36,20,31.63,15.09,2.5,17.28-15.78,18.95-26.51C72.54,60,71.39,45,60.23,35.76c-2.46-2-6,1.49-3.53,3.54C65,46.14,67.06,56.76,66.24,67A115.45,115.45,0,0,1,63.1,84.83c-1.43,5.92-4.47,11.71-11.57,10-10.46-2.5-14.15-18.35-15.11-27.54A24.65,24.65,0,0,1,51.09,41.88c2.93-1.32.39-5.63-2.52-4.32Z"/><path class="cls-1" d="M83.62,40.75A137.34,137.34,0,0,0,87,93.34c.81,3.11,5.63,1.79,4.82-1.33a133.61,133.61,0,0,1-3.18-51.26c.41-3.19-4.59-3.15-5,0Z"/><path class="cls-1" d="M90,43.74a40,40,0,0,1,33.72,19.64c3.67,6.33,7.35,17.45-2.23,20.47-7,2.23-14.78-.69-22,.6-3.16.56-1.82,5.38,1.33,4.82,8.87-1.57,19.12,3.06,27-3,6.82-5.29,5.28-14.64,2.2-21.56C123,49.12,106.83,39,90,38.74c-3.22,0-3.22,5,0,5Z"/><path class="cls-1" d="M142.3,40.67a220.08,220.08,0,0,0,13.59,59.46c1.13,3,6,1.69,4.82-1.33A215.53,215.53,0,0,1,147.3,40.67c-.28-3.18-5.28-3.21-5,0Z"/><path class="cls-1" d="M188.6,26.79c-11.87,7-25.91,16.54-25,32.22.79,13.78,13.82,18.64,25.74,19.2,6.21.29,14,.74,19.52-2.69,5.08-3.18,6.7-9.51,7-15.13C216.4,47,208.56,34,196.75,27.83c-2.84-1.49-5.38,2.82-2.52,4.32a30.78,30.78,0,0,1,16.5,24.67c.44,5.54-.35,13.1-6.34,15.35-4.51,1.69-10.31,1.26-15.06,1-10.24-.48-21.82-4.66-20.7-17s12.89-19.37,22.5-25c2.76-1.64.25-6-2.53-4.32Z"/><path class="cls-1" d="M283.31,105.48l0,19c0,4-.72,9.16,1.66,12.7,1.93,2.87,5.16,3.46,8.38,3.71a161.38,161.38,0,0,0,18.4.19c3.21-.11,3.23-5.11,0-5-4,.14-8,.19-12,.09-4.51-.12-11.09.89-11.47-5.35-.51-8.36,0-16.92,0-25.3,0-3.22-5-3.22-5,0Z"/><path class="cls-1" d="M328.3,137.13l4.07-40.68-4.27,1.76a97,97,0,0,1,30.07,41.09c1.14,3,6,1.68,4.82-1.33a101.78,101.78,0,0,0-31.35-43.29,2.54,2.54,0,0,0-4.27,1.77l-4.07,40.68c-.32,3.19,4.68,3.17,5,0Z"/><path class="cls-1" d="M327.56,125.26h21.6c3.22,0,3.22-5,0-5h-21.6c-3.22,0-3.22,5,0,5Z"/><path class="cls-1" d="M429.06,80.16a157.23,157.23,0,0,0,11.07,28.9,152,152,0,0,0,8.21,14.28c1.76,2.7,3.85,6.58,7.4,7.17,9.1,1.5,6.5-13.73,6.33-18.28l-1.39-37c-.12-3.2-5.12-3.22-5,0l1,27.25.44,11.68c.07,1.88,1,6.09.29,7.79v1.25q-2.9,1.82-3.82-1c-2.44-2.55-4.18-6.56-5.89-9.6q-2.78-4.92-5.17-10a149.81,149.81,0,0,1-8.67-23.8c-.86-3.1-5.68-1.78-4.82,1.33Z"/><path class="cls-1" d="M470,69.88a177.81,177.81,0,0,1,7.31,50c0,3.22,5,3.22,5,0a182.81,182.81,0,0,0-7.49-51.33c-.91-3.08-5.73-1.77-4.82,1.33Z"/><path class="cls-1" d="M488.11,65.74A172.16,172.16,0,0,1,498,112.67c.21,3.2,5.21,3.22,5,0a176.72,176.72,0,0,0-10-48.26c-1.08-3-5.92-1.71-4.82,1.33Z"/><path class="cls-1" d="M500.32,62.92c14-1.19,22.28,11.23,28,22.16,2.67,5.08,7.87,13.57,3.06,18.87-4.61,5.09-14.72,5.25-20.93,4.76-3.21-.26-3.19,4.74,0,5,7.72.61,17.9-.21,23.92-5.73,5.72-5.26,4.06-13.18,1.23-19.5-6.41-14.29-17.21-32.1-35.29-30.56-3.19.27-3.21,5.28,0,5Z"/><path class="cls-1" d="M548.48,102A125.2,125.2,0,0,1,538.1,51.07l-4.27,1.77A523.25,523.25,0,0,1,584.6,99c2.24,2.32,5.77-1.21,3.54-3.53A523.35,523.35,0,0,0,537.37,49.3c-1.62-1.29-4.25-.57-4.27,1.77a131.18,131.18,0,0,0,11.06,53.43c1.28,2.94,5.59.4,4.32-2.52Z"/><path class="cls-1" d="M541.28,84.53q13.2-11.16,27.43-21c2.63-1.81.13-6.15-2.53-4.32Q551.44,69.42,537.75,81c-2.46,2.08,1.09,5.6,3.53,3.53Z"/><path class="cls-1" d="M753.23,89.65a16.39,16.39,0,0,1,6.33-13.45c2.52-1.93,0-6.28-2.53-4.32a21.68,21.68,0,0,0-8.8,17.77c0,3.21,5,3.22,5,0Z"/><path class="cls-1" d="M768.05,71.07l4.32,4.32c2.28,2.28,5.82-1.26,3.54-3.54l-4.32-4.32c-2.28-2.28-5.82,1.26-3.54,3.54Z"/><path class="cls-1" d="M776.73,87.8a56.92,56.92,0,0,1-27.09,32.76c-2.83,1.55-.31,5.87,2.52,4.32a62.08,62.08,0,0,0,29.39-35.76c1-3.07-3.85-4.38-4.82-1.32Z"/><path class="cls-1" d="M739.85,77.65,729.76,69c-2.43-2.09-6,1.44-3.53,3.53l10.08,8.64c2.43,2.08,6-1.44,3.54-3.54Z"/><path class="cls-1" d="M718.62,66.92c-5,9.15-1.15,18.79,4.69,26.5,7.5,9.9,15.81,19.26,23.72,28.84,2.05,2.48,5.57-1.08,3.54-3.54L731.77,96c-5.93-7.19-14.24-16.75-8.83-26.54,1.56-2.81-2.76-5.34-4.32-2.52Z"/><path class="cls-2" d="M912.2,120.94c3.22,0,3.22-5,0-5s-3.22,5,0,5Z"/><path class="cls-2" d="M936.68,125.26c3.22,0,3.22-5,0-5s-3.22,5,0,5Z"/><path class="cls-2" d="M930.64,83.93a104.26,104.26,0,0,1,43-43c2.84-1.51.32-5.83-2.52-4.31a108.87,108.87,0,0,0-44.84,44.82c-1.51,2.84,2.8,5.37,4.32,2.52Z"/><path class="cls-2" d="M992.49,64.81,947.55,112c-2.22,2.33,1.31,5.88,3.53,3.54L996,68.35c2.21-2.33-1.32-5.87-3.54-3.54Z"/><path class="cls-2" d="M923.3,83.16C920.58,70.73,912.57,58.54,900.78,53c-9.54-4.47-24.29-2.37-26.43,10-1.89,11,10.52,22.16,17.81,28.78,9.07,8.25,19.24,15.15,28.82,22.77,10.76,8.56,20.69,18.13,26.35,30.89,1.15,2.59,5.43.75,4.57-1.93-2.56-8-5.35-16.76-3.94-25.23,1.45-8.65,8.17-13.42,14.24-18.92a183.78,183.78,0,0,0,18-18.71c4.71-5.68,9.23-12,10.84-19.3,2.69-12.22-3.63-24.43-16.62-26.19-13.63-1.84-27,5.83-34.21,17.1-1.74,2.72,2.59,5.23,4.32,2.53,6.74-10.53,23.83-20.33,35.94-12.34,5.89,3.89,7.15,11.81,5.6,18.25-1.84,7.66-7.26,14.06-12.34,19.83A190.82,190.82,0,0,1,958,96.47c-4.56,4.09-9.6,7.85-12.45,13.42-5.61,11-2,24,1.56,35l4.57-1.92c-10.34-23.31-33.73-35.7-52.33-51.5-7.39-6.27-29.45-24.91-15.44-33.94,8.07-5.21,18,.74,23.8,6.63a41,41,0,0,1,10.79,20.36c.69,3.15,5.51,1.82,4.83-1.33Z"/></svg>